<?xml version="1.0" encoding="UTF-8"?>
<svg width="57px" height="40px" viewBox="0 0 57 40" version="1.1" xmlns="http://www.w3.org/2000/svg" xmlns:xlink="http://www.w3.org/1999/xlink">
    <title>Combined Shape</title>
    <g id="Page-5" stroke="none" stroke-width="1" fill="none" fill-rule="evenodd">
        <g id="JIT_03-Copy-2" transform="translate(-775.000000, -4485.000000)" fill="#2F3033" fill-rule="nonzero">
            <path d="M826.3,4485 C829.362093,4485 831.880389,4487.45322 831.995863,4490.49597 L832,4490.71429 L832,4519.22857 C832,4522.35415 829.552915,4524.88006 826.517771,4524.99585 L826.3,4525 L780.7,4525 C777.637907,4525 775.119611,4522.54678 775.004137,4519.50403 L775,4519.28571 L775,4490.71429 C775,4487.64452 777.447085,4485.11991 780.482229,4485.00415 L780.7,4485 L826.3,4485 Z M826.3,4489.05714 L780.643,4489.05714 C779.8355,4489.11111 779.180528,4489.77672 779.158263,4490.57258 L779.161,4490.71429 L779.161,4519.28571 C779.161,4520.09524 779.771111,4520.80282 780.559171,4520.87894 L780.7,4520.88571 L826.3,4520.88571 C827.161333,4520.83175 827.819296,4520.16614 827.841727,4519.37027 L827.839,4519.22857 L827.839,4490.65714 C827.839,4489.8 827.155,4489.05714 826.3,4489.05714 Z M792.442,4491.91429 C799.225,4491.91429 802.93,4496.14286 802.93,4504.88571 C802.93,4512.42857 800.365,4518.02857 792.442,4518.08571 L782.866,4518.08571 L782.866,4491.91429 L792.442,4491.91429 Z M816.553,4491.85714 C823.906,4491.85714 824.02,4497.68571 824.02,4498.25714 C823.963,4501.11429 822.139,4503.57143 819.46,4504.37143 C824.191,4505.4 824.989,4508.88571 824.989,4510.65714 C824.989,4517.81176 817.793687,4518.02219 815.129399,4518.02838 L805.666,4518.02857 L805.666,4491.85714 Z M790.39,4496.02857 L789.136,4496.02857 L789.136,4513.85714 L791.359,4513.85714 C794.665,4513.85714 796.603,4511.17143 796.603,4505.4 C796.603,4500.14286 796.033,4496.02857 790.39,4496.02857 Z M814.615,4507.11429 L811.879,4507.11429 L811.879,4513.85714 L814.520897,4513.8571 C815.62019,4513.85523 818.662,4513.77687 818.662,4510.48571 C818.662,4509 817.864,4507.11429 814.615,4507.11429 L814.615,4507.11429 Z M813.874,4495.97143 L811.936,4495.97143 L811.936,4502.25714 L814.387,4502.25714 C816.553,4502.25714 817.807,4500.82857 817.807,4499.11429 C817.807,4496.94286 816.667,4495.97143 813.874,4495.97143 L813.874,4495.97143 Z" id="Combined-Shape"></path>
        </g>
    </g>
</svg>