<?xml version="1.0" encoding="UTF-8"?>
<svg width="54px" height="16px" viewBox="0 0 54 16" version="1.1" xmlns="http://www.w3.org/2000/svg" xmlns:xlink="http://www.w3.org/1999/xlink">
    <title>ergo</title>
    <g id="Page-5" stroke="none" stroke-width="1" fill="none" fill-rule="evenodd">
        <g id="JIT_03-Copy-2" transform="translate(-631.000000, -4497.000000)" fill="#2F3033" fill-rule="nonzero">
            <path d="M677.46,4497 C681.099,4497 684.858,4499.541 684.858,4504.89 C684.858,4509.47 681.806,4512.759 677.317,4512.759 C673.074,4512.759 669.92,4509.74 669.92,4504.89 C669.92,4499.68 673.665,4497 677.46,4497 Z M663.486,4497 C665.687,4497 667.1,4497.367 668.352,4497.98 L667.069,4500.942 C666.114,4500.543 665.012,4500.307 663.708,4500.307 C660.495,4500.307 659.405,4502.229 659.405,4504.883 C659.405,4507.748 660.868,4509.605 663.417,4509.605 C664.341,4509.605 665.033,4509.408 665.247,4509.269 L665.247,4506.604 L662.659,4506.604 L662.663,4503.588 L668.573,4503.588 L668.575,4511.327 C667.676,4511.929 665.786,4512.745 663.208,4512.745 C658.143,4512.745 655.64,4509.25 655.64,4504.98 C655.64,4500.173 659.041,4497 663.486,4497 Z M647.918,4497.035 C649.11,4497.035 650.123,4497.167 650.955,4497.43 C651.787,4497.693 652.466,4498.054 652.993,4498.512 C653.534,4498.97 653.922,4499.538 654.158,4500.162 C654.408,4500.771 654.533,4501.424 654.533,4502.117 C654.533,4503.032 654.309,4503.919 653.822,4504.677 C653.39,4505.351 652.664,4506.04 651.912,4506.515 L651.912,4506.581 C653.593,4507.35 654.544,4509.823 655.467,4512.495 L651.274,4512.495 C650.771,4510.66 649.928,4509.266 649.234,4508.373 C648.649,4507.62 648.192,4507.459 648.192,4507.459 C647.718,4507.473 647.393,4507.471 646.959,4507.451 L646.959,4512.496 L643.425,4512.496 L643.425,4497.404 C644.169,4497.284 644.703,4497.219 645.484,4497.146 C646.204,4497.079 647.017,4497.035 647.918,4497.035 Z M641.385,4497.25 L641.387,4500.494 L634.536,4500.494 L634.536,4503.104 L640.334,4503.104 L640.338,4506.183 L634.536,4506.183 L634.536,4507.814 C634.536,4508.838 635.139,4509.272 635.923,4509.272 L641.655751,4509.271 C641.663188,4509.271 641.667,4509.271 641.667,4509.271 L641.671,4512.496 L634.586,4512.496 C631.934,4512.496 631,4511.271 631,4508.882 L631,4497.25 L641.385,4497.25 Z M677.379,4500.164 C674.886,4500.164 673.573,4502.308 673.573,4504.89 C673.573,4507.79 675.191,4509.616 677.379,4509.616 C680.128,4509.616 681.186,4507.105 681.186,4504.89 C681.186,4502.702 680.128,4500.164 677.379,4500.164 Z M648.446,4500.159 C648.361,4500.158 648.033,4500.161 647.835,4500.168 C647.641,4500.173 647.122,4500.22 646.959,4500.25 L646.959,4504.598 C647.195,4504.626 647.684,4504.649 648.082,4504.649 C648.928,4504.649 649.715,4504.416 650.215,4504.028 C650.715,4503.625 650.983,4502.981 650.983,4502.204 C650.983,4501.566 650.754,4501.055 650.296,4500.709 C649.838,4500.348 649.209,4500.171 648.446,4500.159 Z" id="ergo"></path>
        </g>
    </g>
</svg>