<?xml version="1.0" encoding="UTF-8"?>
<svg width="92px" height="31px" viewBox="0 0 92 31" version="1.1" xmlns="http://www.w3.org/2000/svg" xmlns:xlink="http://www.w3.org/1999/xlink">
    <title>Google_2015_logo</title>
    <g id="Page-5" stroke="none" stroke-width="1" fill="none" fill-rule="evenodd">
        <g id="JIT_03-Copy-2" transform="translate(-246.000000, -4490.000000)" fill="#2F3033" fill-rule="nonzero">
            <g id="Google_2015_logo" transform="translate(246.000000, 4490.000000)">
                <path d="M39.4407407,16.2508889 C39.4407407,20.6494444 36.0367407,23.8906667 31.8592593,23.8906667 C27.6817778,23.8906667 24.2777778,20.6494444 24.2777778,16.2508889 C24.2777778,11.8213333 27.6817778,8.61111111 31.8592593,8.61111111 C36.0367407,8.61111111 39.4407407,11.8213333 39.4407407,16.2508889 Z M36.1219259,16.2508889 C36.1219259,13.5022222 34.149037,11.6215556 31.8592593,11.6215556 C29.5694815,11.6215556 27.5965926,13.5022222 27.5965926,16.2508889 C27.5965926,18.972 29.5694815,20.8802222 31.8592593,20.8802222 C34.149037,20.8802222 36.1219259,18.9685556 36.1219259,16.2508889 Z" id="Shape"></path>
                <path d="M55.7962963,16.2508889 C55.7962963,20.6494444 52.3922963,23.8906667 48.2148148,23.8906667 C44.0373333,23.8906667 40.6333333,20.6494444 40.6333333,16.2508889 C40.6333333,11.8247778 44.0373333,8.61111111 48.2148148,8.61111111 C52.3922963,8.61111111 55.7962963,11.8213333 55.7962963,16.2508889 Z M52.4774815,16.2508889 C52.4774815,13.5022222 50.5045926,11.6215556 48.2148148,11.6215556 C45.925037,11.6215556 43.9521481,13.5022222 43.9521481,16.2508889 C43.9521481,18.972 45.925037,20.8802222 48.2148148,20.8802222 C50.5045926,20.8802222 52.4774815,18.9685556 52.4774815,16.2508889 Z" id="Shape"></path>
                <path d="M71.4703704,9.07266667 L71.4703704,22.7884444 C71.4703704,28.4304444 68.1788148,30.7347778 64.2875556,30.7347778 C60.6245926,30.7347778 58.42,28.2582222 57.5885926,26.2328889 L60.4780741,25.017 C60.9925926,26.2604444 62.2533333,27.7277778 64.2841481,27.7277778 C66.774963,27.7277778 68.3185185,26.1743333 68.3185185,23.25 L68.3185185,22.1512222 L68.2026667,22.1512222 C67.4598519,23.0777778 66.0287407,23.8872222 64.2228148,23.8872222 C60.444,23.8872222 56.9820741,20.5598889 56.9820741,16.2784444 C56.9820741,11.966 60.444,8.61111111 64.2228148,8.61111111 C66.0253333,8.61111111 67.4564444,9.42055556 68.2026667,10.3195556 L68.3185185,10.3195556 L68.3185185,9.07611111 L71.4703704,9.07611111 L71.4703704,9.07266667 Z M68.5536296,16.2784444 C68.5536296,13.5883333 66.7783704,11.6215556 64.5192593,11.6215556 C62.2294815,11.6215556 60.3111111,13.5883333 60.3111111,16.2784444 C60.3111111,18.941 62.2294815,20.8802222 64.5192593,20.8802222 C66.7783704,20.8802222 68.5536296,18.941 68.5536296,16.2784444 Z" id="Shape"></path>
                <polygon id="Path" points="76.6666667 1.03333333 76.6666667 23.4222222 73.4296296 23.4222222 73.4296296 1.03333333"></polygon>
                <path d="M89.2808889,18.7653333 L91.8568889,20.5013333 C91.0254815,21.7447778 89.0219259,23.8872222 85.56,23.8872222 C81.2666667,23.8872222 78.0602963,20.5323333 78.0602963,16.2474444 C78.0602963,11.7042222 81.2939259,8.60766667 85.1885926,8.60766667 C89.1105185,8.60766667 91.0288889,11.7627778 91.6558519,13.4677778 L92,14.3357778 L81.897037,18.5655556 C82.6705185,20.0983333 83.8733333,20.8802222 85.56,20.8802222 C87.2500741,20.8802222 88.4222222,20.0397778 89.2808889,18.7653333 Z M81.3518519,16.0166667 L88.1053333,13.1818889 C87.7339259,12.2277778 86.6162963,11.563 85.301037,11.563 C83.6143704,11.563 81.2666667,13.0682222 81.3518519,16.0166667 L81.3518519,16.0166667 Z" id="Shape"></path>
                <path d="M12.0247407,14.2634444 L12.0247407,11.0222222 L22.8296296,11.0222222 C22.9352593,11.5871111 22.9897778,12.2553333 22.9897778,12.9786667 C22.9897778,15.4104444 22.3321481,18.4174444 20.2127407,20.5598889 C18.1512593,22.7298889 15.5173333,23.8872222 12.0281481,23.8872222 C5.56088889,23.8872222 0.122666667,18.5621111 0.122666667,12.0245556 C0.122666667,5.487 5.56088889,0.161888889 12.0281481,0.161888889 C15.6059259,0.161888889 18.1546667,1.581 20.0696296,3.43066667 L17.8071111,5.71777778 C16.4339259,4.41577778 14.5734815,3.40311111 12.0247407,3.40311111 C7.30207407,3.40311111 3.60844444,7.25055556 3.60844444,12.0245556 C3.60844444,16.7985556 7.30207407,20.646 12.0247407,20.646 C15.088,20.646 16.8325926,19.4025556 17.9502222,18.2727778 C18.8565926,17.3565556 19.4528889,16.0476667 19.688,14.26 L12.0247407,14.2634444 Z" id="Path"></path>
            </g>
        </g>
    </g>
</svg>