<?xml version="1.0" encoding="UTF-8"?>
<svg width="90px" height="14px" viewBox="0 0 90 14" version="1.1" xmlns="http://www.w3.org/2000/svg" xmlns:xlink="http://www.w3.org/1999/xlink">
    <title>Combined Shape</title>
    <g id="Page-5" stroke="none" stroke-width="1" fill="none" fill-rule="evenodd">
        <g id="JIT_03-Copy-2" transform="translate(-941.000000, -4498.000000)" fill="#2F3033">
            <path d="M946.53986,4498.00009 C947.44355,4498.00009 948.75152,4498.16381 950.46233,4498.4917 L950.46233,4501.05503 C949.18937,4500.55447 948.00776,4500.30472 946.91606,4500.30472 C945.37877,4500.30472 944.61017,4500.72023 944.61017,4501.55311 C944.61017,4501.86444 944.76497,4502.11835 945.07502,4502.31521 C945.33287,4502.4745 946.04333,4502.81099 947.20487,4503.32573 C948.87734,4504.0569 949.99073,4504.69249 950.54549,4505.23309 C951.20375,4505.87435 951.53351,4506.70413 951.53351,4507.7212 C951.53351,4509.18311 950.88758,4510.29826 949.59662,4511.06665 C948.55073,4511.68974 947.19452,4512 945.5288,4512 C944.1221,4512 942.70478,4511.8369 941.27774,4511.50909 L941.27774,4508.84441 C942.81845,4509.32177 944.18177,4509.56044 945.3677,4509.56044 C947.00507,4509.56044 947.82389,4509.13439 947.82389,4508.2829 C947.82389,4507.96546 947.70473,4507.6987 947.46587,4507.4827 C947.22161,4507.2536 946.59602,4506.93598 945.59072,4506.52907 C943.78694,4505.79895 942.61073,4505.1763 942.06362,4504.6613 C941.35451,4503.98151 941,4503.12426 941,4502.08832 C941,4500.75425 941.5166,4499.73744 942.54908,4499.03869 C943.57013,4498.34605 944.8997,4498.00009 946.53986,4498.00009 Z M1026.0077,4498 C1026.92993,4498 1028.12495,4498.14414 1029.5906,4498.43376 L1029.92909,4498.49162 L1029.92909,4501.05494 C1028.65595,4500.55438 1027.47092,4500.30463 1026.37337,4500.30463 C1024.84193,4500.30463 1024.0781,4500.72014 1024.0781,4501.55302 C1024.0781,4501.86435 1024.23209,4502.11826 1024.54133,4502.31512 C1024.78703,4502.4683 1025.50037,4502.80496 1026.68135,4503.32564 C1028.34113,4504.05681 1029.45218,4504.6924 1030.0118,4505.23301 C1030.67105,4505.87426 1031,4506.70404 1031,4507.72111 C1031,4509.18303 1030.35785,4510.29817 1029.07346,4511.06656 C1028.02145,4511.68965 1026.66182,4511.99991 1024.99637,4511.99991 C1023.58814,4511.99991 1022.17019,4511.8369 1020.74423,4511.50909 L1020.74423,4508.84441 C1022.27189,4509.32177 1023.63503,4509.56044 1024.83491,4509.56044 C1026.47246,4509.56044 1027.29029,4509.13439 1027.29029,4508.2829 C1027.29029,4507.96546 1027.17428,4507.6987 1026.94343,4507.4827 C1026.69791,4507.2536 1026.06971,4506.93598 1025.05838,4506.52907 C1023.26,4505.80498 1022.08262,4505.18259 1021.53047,4504.6613 C1020.82172,4503.98753 1020.46784,4503.1271 1020.46784,4502.0791 C1020.46784,4500.75079 1020.98318,4499.73735 1022.01674,4499.0386 C1023.03626,4498.34596 1024.36736,4498 1026.0077,4498 Z M978.47618,4498.2346 L981.92489,4506.85589 L985.46009,4498.2346 L990.1751,4498.2346 L990.1751,4511.72739 L986.54504,4511.72739 L986.54504,4502.17417 L982.52528,4511.86436 L980.15207,4511.86436 L976.20971,4502.17417 L976.20971,4511.72739 L973.51223,4511.72739 L973.51223,4498.2346 L978.47618,4498.2346 Z M957.52427,4498.2346 L957.52427,4511.72739 L953.69567,4511.72739 L953.69567,4498.2346 L957.52427,4498.2346 Z M970.85489,4498.2346 L970.85489,4500.67505 L964.72544,4500.67505 L964.72544,4503.72175 L970.06082,4503.72175 L970.06082,4505.94779 L964.72544,4505.94779 L964.72544,4509.14971 L971.01284,4509.14971 L971.01284,4511.72739 L961.03544,4511.72739 L961.03544,4498.2346 L970.85489,4498.2346 Z M1003.50626,4498.2346 L1003.50626,4500.67505 L997.37735,4500.67505 L997.37735,4503.72175 L1002.71255,4503.72175 L1002.71255,4505.94779 L997.37735,4505.94779 L997.37735,4509.14971 L1003.6652,4509.14971 L1003.6652,4511.72739 L993.68699,4511.72739 L993.68699,4498.2346 L1003.50626,4498.2346 Z M1010.62175,4498.2346 L1015.32947,4507.26698 L1015.32947,4498.2346 L1018.02623,4498.2346 L1018.02623,4511.72739 L1013.71487,4511.72739 L1008.88223,4502.57346 L1008.88223,4511.72739 L1006.18439,4511.72739 L1006.18439,4498.2346 L1010.62175,4498.2346 Z" id="Combined-Shape"></path>
        </g>
    </g>
</svg>