<?xml version="1.0" encoding="UTF-8"?>
<svg width="72px" height="36px" viewBox="0 0 72 36" version="1.1" xmlns="http://www.w3.org/2000/svg" xmlns:xlink="http://www.w3.org/1999/xlink">
    <title>path108</title>
    <g id="Page-5" stroke="none" stroke-width="1" fill="none" fill-rule="evenodd">
        <g id="JIT_03-Copy-2" transform="translate(-1124.000000, -4487.000000)" fill="#2F3033" fill-rule="nonzero">
            <path d="M1188.8165,4503.56768 L1196,4503.56768 L1196,4510.88236 L1188.8165,4510.88236 L1188.8165,4503.56768 Z M1167.26719,4503.56768 L1174.44949,4503.56768 L1174.44949,4510.88236 L1167.26719,4510.88236 L1167.26719,4503.56768 Z M1145.71669,4503.56768 L1152.90019,4503.56768 L1152.90019,4510.88236 L1145.71669,4510.88236 L1145.71669,4503.56768 Z M1141.14411,4515.30393 C1141.14411,4517.62438 1141.47669,4519.13059 1142.14426,4519.82502 C1142.70856,4520.41674 1143.67028,4520.78107 1145.01862,4520.91678 C1145.41844,4520.95103 1146.10401,4520.96686 1147.07173,4520.96686 L1147.07173,4523 L1129.76313,4523 L1129.76313,4520.96686 C1131.15349,4520.96686 1132.17764,4520.89966 1132.8404,4520.76391 C1134.18153,4520.4766 1135.02679,4519.6807 1135.37378,4518.37622 C1135.55508,4517.70013 1135.64753,4516.67561 1135.64753,4515.30388 L1135.64753,4488.72872 C1132.71073,4488.81313 1130.41389,4489.80337 1128.75578,4491.70081 C1127.18053,4493.51633 1126.22001,4496.29525 1125.87062,4500.03878 L1124,4499.7099 L1124.34819,4487 L1152.48667,4487 L1152.83606,4499.7099 L1150.96304,4500.03878 C1150.61486,4496.29525 1149.64593,4493.51633 1148.06467,4491.70081 C1146.39817,4489.80337 1144.09052,4488.81308 1141.14411,4488.72872 L1141.14411,4515.30388 L1141.14411,4515.30393 Z M1124.03411,4503.56768 L1131.21761,4503.56768 L1131.21761,4510.88236 L1124.03411,4510.88236 L1124.03411,4503.56768 Z" id="path108"></path>
        </g>
    </g>
</svg>