<?xml version="1.0" encoding="UTF-8"?>
<svg width="119px" height="20px" viewBox="0 0 119 20" version="1.1" xmlns="http://www.w3.org/2000/svg" xmlns:xlink="http://www.w3.org/1999/xlink">
    <title>Group 4</title>
    <g id="Page-5" stroke="none" stroke-width="1" fill="none" fill-rule="evenodd">
        <g id="JIT_03-Copy-2" transform="translate(-421.000000, -4495.000000)" fill="#2F3033" fill-rule="nonzero">
            <g id="Group-4" transform="translate(421.000000, 4495.000000)">
                <path d="M112.976944,13.8799039 C112.675854,13.7518424 112.418972,13.5699822 112.206595,13.3340327 C111.99392,13.0983761 111.829037,12.8159383 111.712246,12.4858424 C111.595753,12.156624 111.537208,11.7911506 111.537208,11.3888376 L111.537208,8.74719625 C111.537208,8.30336535 111.606207,7.9133322 111.744207,7.57709672 C111.882505,7.24086123 112.064414,6.95959299 112.291426,6.73446138 C112.518141,6.50903742 112.782191,6.34091968 113.082983,6.2298158 C113.384073,6.11929663 113.693826,6.06374469 114.012838,6.06374469 C114.352759,6.06374469 114.669681,6.12455945 114.963602,6.24560428 C115.257822,6.36694138 115.498575,6.55435615 115.686458,6.80726372 C115.874042,7.06046365 116.021003,7.38822011 116.127638,7.79024083 C116.205301,8.08846705 116.259963,8.42821108 116.292223,8.8091805 C116.323885,9.19073471 116.340313,9.59655625 116.340313,10.0263529 C116.340313,10.3590799 116.323885,10.7304008 116.292223,11.1391462 C116.259963,11.5487687 116.21934,11.8850042 116.170054,12.1478526 C116.049379,12.7516143 115.812211,13.2229292 115.457952,13.5629654 C115.103693,13.9024168 114.60785,14.0719964 113.970124,14.0719964 C113.608995,14.0719964 113.278034,14.0085502 112.976944,13.8799039 L112.976944,13.8799039 Z M111.537208,19.1073422 L111.537208,14.5196286 C111.7,14.7272173 111.917752,14.9424077 112.190764,15.1646156 C112.463179,15.3862386 112.799516,15.5613741 113.199775,15.6897276 C113.600034,15.8177898 114.072877,15.882113 114.618603,15.882113 C115.064563,15.882113 115.51829,15.8093105 115.978587,15.6639983 C116.439184,15.5181013 116.849897,15.2631473 117.211325,14.8991356 C117.572753,14.5351248 117.855921,14.079306 118.061427,13.5316811 C118.22392,13.1086093 118.344595,12.6109803 118.422556,12.0387954 C118.500218,11.4669027 118.539348,10.7958937 118.539348,10.0263529 C118.539348,9.15974254 118.489763,8.39838848 118.390894,7.74316783 C118.291426,7.08794718 118.117881,6.51430025 117.869959,6.02193452 C117.260909,4.84335613 116.187677,4.25362828 114.650564,4.25362828 C113.892163,4.25362828 113.253243,4.40449571 112.732309,4.70623047 C112.211674,5.00796532 111.791999,5.40823169 111.473285,5.90732209 L111.420416,4.58694 L109.401199,4.58694 L109.401199,19.1073422 L111.537208,19.1073422 L111.537208,19.1073422 Z M102.054657,13.8799039 C101.753866,13.7518424 101.497282,13.5699822 101.284905,13.3340327 C101.071932,13.0983761 100.907647,12.8159383 100.790257,12.4858424 C100.673465,12.156624 100.61492,11.7911506 100.61492,11.3888376 L100.61492,8.74719625 C100.61492,8.30336535 100.684218,7.9133322 100.822218,7.57709672 C100.960218,7.24086123 101.143023,6.95959299 101.369438,6.73446138 C101.59645,6.50903742 101.859904,6.34091968 102.161293,6.2298158 C102.462383,6.11929663 102.772434,6.06374469 103.091148,6.06374469 C103.431368,6.06374469 103.747991,6.12455945 104.042211,6.24560428 C104.336132,6.36694138 104.576885,6.55435615 104.765067,6.80726372 C104.952352,7.06046365 105.099313,7.38822011 105.20565,7.79024083 C105.283611,8.08846705 105.338571,8.42821108 105.370533,8.8091805 C105.402195,9.19073471 105.418026,9.59655625 105.418026,10.0263529 C105.418026,10.3590799 105.402195,10.7304008 105.370533,11.1391462 C105.338571,11.5487687 105.29765,11.8850042 105.248065,12.1478526 C105.127689,12.7516143 104.890222,13.2229292 104.536262,13.5629654 C104.182003,13.9024168 103.68616,14.0719964 103.048732,14.0719964 C102.687305,14.0719964 102.356046,14.0085502 102.054657,13.8799039 L102.054657,13.8799039 Z M100.61492,19.1073422 L100.61492,14.5196286 C100.77801,14.7272173 100.995764,14.9424077 101.268776,15.1646156 C101.541489,15.3862386 101.878125,15.5613741 102.278085,15.6897276 C102.678344,15.8177898 103.151187,15.882113 103.696614,15.882113 C104.143172,15.882113 104.5963,15.8093105 105.056897,15.6639983 C105.517195,15.5181013 105.928207,15.2631473 106.289336,14.8991356 C106.650763,14.5351248 106.933932,14.079306 107.139438,13.5316811 C107.302528,13.1086093 107.422905,12.6109803 107.500866,12.0387954 C107.578827,11.4669027 107.617658,10.7958937 107.617658,10.0263529 C107.617658,9.15974254 107.567775,8.39838848 107.468606,7.74316783 C107.369437,7.08794718 107.196191,6.51430025 106.948269,6.02193452 C106.338921,4.84335613 105.265689,4.25362828 103.728575,4.25362828 C102.970772,4.25362828 102.331254,4.40449571 101.810917,4.70623047 C101.290282,5.00796532 100.870607,5.40823169 100.551595,5.90732209 L100.498128,4.58694 L98.4795094,4.58694 L98.4795094,19.1073422 L100.61492,19.1073422 L100.61492,19.1073422 Z M92.8651321,15.4090444 C93.4141437,15.0932756 93.8798183,14.6757588 94.2627519,14.1556169 L94.2839599,15.5388604 L96.3028779,15.5388604 L96.3028779,4.58694 L94.1668689,4.58694 L94.1668689,11.045585 C94.1668689,11.4133974 94.0856229,11.8171723 93.9225318,12.2574947 C93.7594414,12.6978172 93.4705983,13.0875573 93.0565989,13.4275944 C92.6423013,13.7670457 92.172744,13.9369174 91.6488231,13.9369174 C91.0113954,13.9369174 90.5364614,13.7793255 90.2246185,13.4638488 C89.9130731,13.1483721 89.7571521,12.6545452 89.7571521,11.9820739 L89.7571521,4.58694 L87.6214424,4.58694 L87.6214424,12.5536739 C87.6214424,13.1919369 87.7170262,13.7237737 87.9081947,14.1506468 C88.0996623,14.576935 88.3493754,14.918725 88.6576349,15.1748487 C88.9655951,15.4315573 89.3126855,15.6134175 89.6986067,15.7207198 C90.0845278,15.8283158 90.4725399,15.882113 90.8623437,15.882113 C91.6488231,15.882113 92.3164189,15.7245211 92.8651321,15.4090444 L92.8651321,15.4090444 Z M82.680635,15.5388604 L82.680635,10.4941588 C82.680635,10.0368786 82.7406738,9.50650367 82.8613489,8.90303406 C82.9814265,8.29985688 83.2735557,7.7709438 83.7377366,7.31687969 C84.2016187,6.86252323 84.8270978,6.63563743 85.6129788,6.63563743 C85.8755372,6.63563743 86.0699908,6.64967155 86.1978353,6.67686281 L86.1978353,4.5658887 L85.9215366,4.5658887 C85.1986812,4.5658887 84.5469165,4.77055379 83.9662426,5.17959161 C83.3852697,5.58862936 82.9243747,6.16081445 82.584752,6.89556202 L82.5635443,4.58694 L80.5449254,4.58694 L80.5449254,15.5388604 L82.680635,15.5388604 L82.680635,15.5388604 Z M72.3638136,15.5388604 L72.3638136,11.1493795 L73.8405896,9.68339279 L76.7735312,15.5388604 L79.1959933,15.5388604 L75.4027939,8.12296776 L78.9516562,4.58694 L76.4124021,4.58694 L72.3638136,8.63258382 L72.3638136,0.716723386 L70.2281041,0.716723386 L70.2281041,15.5388604 L72.3638136,15.5388604 L72.3638136,15.5388604 Z M61.1995787,15.5388604 L61.1995787,9.07963075 C61.1995787,8.70538607 61.2826174,8.29313213 61.4492924,7.84228422 C61.6156687,7.39172866 61.9045122,6.99994123 62.3149269,6.66662951 C62.7256402,6.33390258 63.2005742,6.16783155 63.7391315,6.16783155 C64.3765586,6.16783155 64.8404407,6.32717791 65.1307778,6.646163 C65.4214135,6.96544052 65.5668807,7.45722146 65.5668807,8.12296776 L65.5668807,15.5388604 L67.7028889,15.5388604 L67.7028889,7.57154154 C67.7028889,6.92713898 67.5837073,6.34472058 67.3462404,5.82428653 C67.1090721,5.30443726 66.7443586,4.91264984 66.2520999,4.64892426 C65.7598413,4.38549111 65.1842451,4.25362828 64.5253115,4.25362828 C63.7322614,4.25362828 63.0589901,4.41005089 62.5066927,4.72201895 C61.9537978,5.03398702 61.4866299,5.45004186 61.1039944,5.96989113 L61.082488,4.58694 L59.0638691,4.58694 L59.0638691,15.5388604 L61.1995787,15.5388604 L61.1995787,15.5388604 Z M50.3453949,7.59785567 C50.469057,7.17829219 50.6336411,6.84556526 50.8391471,6.59938243 C51.0446531,6.35349196 51.2889902,6.17981904 51.5727559,6.07894838 C51.8556253,5.97895486 52.1677675,5.92866574 52.5073902,5.92866574 C52.8688179,5.92866574 53.2284535,5.9976671 53.5859981,6.13654703 C53.9435428,6.27484209 54.2305941,6.59411961 54.4465547,7.09350244 C54.662814,7.59259284 54.7709436,8.28582268 54.7709436,9.17348431 L50.1380966,9.17348431 C50.1518369,8.54253116 50.2211354,8.01712663 50.3453949,7.59785567 L50.3453949,7.59785567 Z M54.3617237,15.6426552 C54.9107355,15.4836007 55.3746176,15.2391727 55.7539674,14.9099536 C56.1327197,14.5804434 56.4568099,14.1661429 56.7259392,13.6670522 L55.0364885,12.8141837 C54.9444886,12.9665126 54.8094759,13.1434019 54.6329439,13.3442659 C54.4555157,13.5454227 54.2022176,13.7205573 53.8727507,13.8693787 C53.5435827,14.0187841 53.1696094,14.0933404 52.7517273,14.0933404 C52.3622216,14.0933404 52.0061705,14.0448054 51.6841712,13.9474434 C51.3615744,13.8503734 51.0837829,13.6840101 50.8499003,13.4483526 C50.6160177,13.212696 50.4353038,12.8969265 50.3080573,12.5019234 C50.1805122,12.1066272 50.1165902,11.6142616 50.1165902,11.0251185 L50.1165902,10.7230913 L56.8639389,10.7230913 L56.8639389,9.57930593 C56.8639389,9.08664785 56.8391468,8.57001478 56.7895624,8.02940656 C56.7399781,7.48850598 56.6249784,6.98386041 56.4442645,6.51634688 C56.2638493,6.04795629 55.9965122,5.63365564 55.6419546,5.27344517 C55.323241,4.96118468 54.9229821,4.71324757 54.4414767,4.52963379 C53.9596726,4.34572757 53.364661,4.25362828 52.656143,4.25362828 C51.8911707,4.25362828 51.2429904,4.34923612 50.7116019,4.53986701 C50.1805122,4.73049789 49.7339547,5.0097196 49.3728257,5.3772396 C49.1036964,5.64067274 48.8611515,5.98217105 48.6448922,6.4014421 C48.4289317,6.82129784 48.2640489,7.36541461 48.1508413,8.03466938 C48.0373351,8.70392415 47.9808807,9.45796875 47.9808807,10.2968032 C47.9808807,10.9414982 48.016426,11.522747 48.0869194,12.0387954 C48.1577115,12.5557205 48.2816723,13.0322984 48.4591004,13.4691118 C48.7566062,14.2252031 49.243787,14.8161008 49.9203439,15.2423882 C50.5963035,15.6689693 51.4873274,15.882113 52.5928185,15.882113 C53.2230769,15.882113 53.8130107,15.8022937 54.3617237,15.6426552 L54.3617237,15.6426552 Z M43.3853714,15.7730561 C43.7497861,15.7002536 44.0723829,15.6046461 44.3519667,15.486525 C44.6318492,15.3692807 44.8729006,15.2391727 45.0748222,15.096784 C45.2767438,14.9549803 45.4341591,14.8111299 45.5473666,14.6655257 C45.7672102,14.3950748 45.9443397,14.1021118 46.078755,13.7863431 C46.213469,13.4711584 46.2806766,13.0735238 46.2806766,12.5951922 C46.2806766,12.1931713 46.2343781,11.8499188 46.1423783,11.5660191 C46.0506772,11.2812422 45.9443397,11.0420765 45.8236647,10.8482294 C45.653704,10.5982457 45.4093669,10.3473847 45.0906533,10.0941848 C44.7716411,9.84098488 44.1485515,9.57550503 43.2204886,9.29833004 C42.7530221,9.16646729 42.3384257,9.03489681 41.9775953,8.90303406 C41.6158688,8.77146366 41.3094019,8.63112189 41.0581947,8.48171639 C40.8066888,8.33260324 40.6170139,8.17004068 40.4894687,7.99285921 C40.3622223,7.81626253 40.2983003,7.61364406 40.2983003,7.38441921 C40.2983003,6.91310477 40.4503389,6.55611042 40.7553123,6.31314371 C40.9393118,6.15379735 41.16274,6.04269347 41.4247004,5.98012443 C41.6866608,5.91784774 41.9949199,5.88656322 42.3491788,5.88656322 C42.8733985,5.88656322 43.3160729,5.99620526 43.6772019,6.21431976 C44.0386297,6.43272662 44.3220966,6.77100873 44.5273039,7.22828896 L46.2382612,6.41752292 C45.9335866,5.68920758 45.4484967,5.14684517 44.7823943,4.78955838 C44.1165906,4.43256403 43.2981508,4.25362828 42.3279711,4.25362828 C41.7825437,4.25362828 41.256532,4.31999823 40.7502343,4.45156871 C40.2436381,4.5831391 39.8182883,4.77757089 39.4747826,5.03398702 C39.1312769,5.29040306 38.8711087,5.58862936 38.6936805,5.92866574 C38.5380574,6.19911607 38.4299278,6.47979953 38.369889,6.77100873 C38.3095515,7.06221792 38.2793827,7.32915962 38.2793827,7.57154154 C38.2793827,7.84900889 38.3220969,8.14226471 38.4069279,8.45072422 C38.4923562,8.75918374 38.6369273,9.04191391 38.8427321,9.29833004 C39.0052253,9.49948657 39.2394066,9.70941449 39.5437825,9.92752899 C39.8484571,10.1459358 40.230794,10.3421219 40.6913903,10.5152101 L42.3279711,11.1081541 C42.6183081,11.2189656 42.9140218,11.3370866 43.2154108,11.4616399 C43.5162023,11.5864856 43.7551627,11.7546033 43.9322922,11.9659931 C44.1094217,12.1779677 44.1981358,12.4601131 44.1981358,12.8141837 C44.1981358,13.0565659 44.1413827,13.2629848 44.0281751,13.4328573 C43.9146689,13.602729 43.7623316,13.7398547 43.5711632,13.8436486 C43.3799948,13.9474434 43.1565667,14.0219997 42.901775,14.0670263 C42.6466847,14.1123449 42.3739711,14.1345658 42.083634,14.1345658 C41.7649204,14.1345658 41.4814535,14.0968488 41.233532,14.0205379 C40.9856105,13.943935 40.7624811,13.8383865 40.5638451,13.7033074 C40.3658067,13.5682284 40.1919628,13.4103436 40.0435087,13.2296539 C39.8944571,13.0495483 39.7633274,12.8519007 39.6501199,12.6370024 L37.8862927,13.4068352 C38.0281755,13.7743553 38.2226296,14.1070819 38.4708498,14.4050159 C38.7184727,14.7032427 39.0162772,14.9599504 39.3633674,15.1748487 C39.7247951,15.3897478 40.1265475,15.5613741 40.5695205,15.6897276 C41.0121948,15.8177898 41.5525443,15.882113 42.1899714,15.882113 C42.6215939,15.882113 43.0203592,15.8458586 43.3853714,15.7730561 L43.3853714,15.7730561 Z M33.6154709,15.7730561 C33.9801845,15.7002536 34.3027811,15.6046461 34.5823649,15.486525 C34.8622474,15.3692807 35.1030002,15.2391727 35.3049218,15.096784 C35.5068434,14.9549803 35.6642586,14.8111299 35.7777649,14.6655257 C35.9973098,14.3950748 36.1744393,14.1021118 36.3091533,13.7863431 C36.4438673,13.4711584 36.511075,13.0735238 36.511075,12.5951922 C36.511075,12.1931713 36.4647763,11.8499188 36.3727765,11.5660191 C36.2807768,11.2812422 36.1744393,11.0420765 36.054063,10.8482294 C35.8841023,10.5982457 35.6400638,10.3473847 35.3207529,10.0941848 C35.0020393,9.84098488 34.3789498,9.57550503 33.4508869,9.29833004 C32.9834204,9.16646729 32.5688239,9.03489681 32.2076949,8.90303406 C31.8465658,8.77146366 31.5398003,8.63112189 31.288593,8.48171639 C31.037087,8.33260324 30.8474122,8.17004068 30.7201657,7.99285921 C30.5926205,7.81626253 30.5286986,7.61364406 30.5286986,7.38441921 C30.5286986,6.91310477 30.6810359,6.55611042 30.9857105,6.31314371 C31.1700089,6.15379735 31.3928395,6.04269347 31.6550987,5.98012443 C31.9170592,5.91784774 32.2253182,5.88656322 32.5792784,5.88656322 C33.1037967,5.88656322 33.5464711,5.99620526 33.9076002,6.21431976 C34.269028,6.43272662 34.5521962,6.77100873 34.7577022,7.22828896 L36.4686594,6.41752292 C36.1639848,5.68920758 35.6785963,5.14684517 35.0130912,4.78955838 C34.3469888,4.43256403 33.5288478,4.25362828 32.5583694,4.25362828 C32.0129421,4.25362828 31.4866315,4.31999823 30.9803339,4.45156871 C30.4737377,4.5831391 30.0486867,4.77757089 29.7054796,5.03398702 C29.3613765,5.29040306 29.1012083,5.58862936 28.9240788,5.92866574 C28.768157,6.19911607 28.6600274,6.47979953 28.5999886,6.77100873 C28.5399497,7.06221792 28.5100797,7.32915962 28.5100797,7.57154154 C28.5100797,7.84900889 28.5521965,8.14226471 28.6370275,8.45072422 C28.7224558,8.75918374 28.8673257,9.04191391 29.0731304,9.29833004 C29.2359222,9.49948657 29.4695061,9.70941449 29.7744795,9.92752899 C30.0788554,10.1459358 30.4614909,10.3421219 30.9217886,10.5152101 L32.5583694,11.1081541 C32.8487064,11.2189656 33.1444201,11.3370866 33.4455103,11.4616399 C33.7466005,11.5864856 33.9858598,11.7546033 34.1629892,11.9659931 C34.33982,12.1779677 34.4285341,12.4601131 34.4285341,12.8141837 C34.4285341,13.0565659 34.371781,13.2629848 34.2582747,13.4328573 C34.1447685,13.602729 33.9930286,13.7398547 33.8012628,13.8436486 C33.6103931,13.9474434 33.3869649,14.0219997 33.1318746,14.0670263 C32.877083,14.1123449 32.6040706,14.1345658 32.3137336,14.1345658 C31.9953187,14.1345658 31.7115531,14.0968488 31.4639303,14.0205379 C31.21571,13.943935 30.9928794,13.8383865 30.7945421,13.7033074 C30.5959063,13.5682284 30.4223612,13.4103436 30.2736082,13.2296539 C30.125154,13.0495483 29.9937258,12.8519007 29.8805182,12.6370024 L28.1163923,13.4068352 C28.258275,13.7743553 28.4527292,14.1070819 28.7009494,14.4050159 C28.9488709,14.7032427 29.2463768,14.9599504 29.5937656,15.1748487 C29.9548947,15.3897478 30.356647,15.5613741 30.7996201,15.6897276 C31.2422944,15.8177898 31.7826438,15.882113 32.420071,15.882113 C32.8522908,15.882113 33.2507575,15.8458586 33.6154709,15.7730561 L33.6154709,15.7730561 Z M20.5936167,19.2000261 C20.9974599,19.0895074 21.39055,18.8222729 21.7728868,18.3994938 C22.1555224,17.976422 22.5094826,17.348977 22.8356637,16.5168676 L27.5960557,4.58694 L25.4708007,4.58694 L22.5486124,12.1691963 L19.7647224,4.58694 L17.5862987,4.58694 L21.4437187,15.0292445 L20.9442913,16.0695283 C20.7952396,16.4510819 20.5885388,16.7870249 20.3226953,17.0785269 C20.0568517,17.3697361 19.6760084,17.5153403 19.1801653,17.5153403 C19.0033345,17.5153403 18.8366595,17.5013059 18.6807379,17.4738229 L18.6807379,19.3251648 C18.8722049,19.3529407 19.1234122,19.3666822 19.4355544,19.3666822 C19.8038522,19.3666822 20.1897734,19.3111305 20.5936167,19.2000261 L20.5936167,19.2000261 Z M9.97480907,15.5388604 L9.97480907,9.07963075 C9.97480907,8.70538607 10.0581465,8.29313213 10.2248215,7.84228422 C10.390899,7.39172866 10.6797425,6.99994123 11.0904559,6.66662951 C11.5011694,6.33390258 11.9761033,6.16783155 12.5146606,6.16783155 C13.1520877,6.16783155 13.6156711,6.32717791 13.9063069,6.646163 C14.1969426,6.96544052 14.3421111,7.45722146 14.3421111,8.12296776 L14.3421111,15.5388604 L16.4778206,15.5388604 L16.4778206,7.57154154 C16.4778206,6.92713898 16.3589377,6.34472058 16.1217695,5.82428653 C15.8846011,5.30443726 15.519589,4.91264984 15.0273303,4.64892426 C14.5350717,4.38549111 13.9597742,4.25362828 13.3008406,4.25362828 C12.5355697,4.25362828 11.885597,4.39630912 11.3512216,4.67991643 C10.8159501,4.96469323 10.3574446,5.3529721 9.97480907,5.84533783 L9.97480907,0.716723386 L7.83909951,0.716723386 L7.83909951,15.5388604 L9.97480907,15.5388604 L9.97480907,15.5388604 Z M5.99312958,15.5391533 L5.99312958,13.8129492 C5.7240003,13.8401402 5.45487103,13.8541746 5.18574175,13.8541746 C4.85239185,13.8541746 4.58147036,13.8126572 4.37267862,13.7293287 C4.16358818,13.646001 3.99870542,13.5211552 3.87862777,13.3550839 C3.75825141,13.1887206 3.67670614,12.9811319 3.63429065,12.7311481 C3.59187515,12.4817491 3.57036871,12.1905399 3.57036871,11.8575206 L3.57036871,6.2298158 L5.87633763,6.2298158 L5.87633763,4.58694 L3.57036871,4.58694 L3.57036871,0.71701582 L1.44541239,0.71701582 L1.44541239,4.58694 L0,4.58694 L0,6.2298158 L1.44541239,6.2298158 L1.44541239,11.8782795 C1.44541239,12.4399389 1.49320449,12.9516014 1.58878869,13.4126831 C1.68407419,13.873764 1.85821666,14.2652587 2.1094239,14.587753 C2.36063114,14.9102465 2.70622777,15.1593534 3.1456164,15.3362419 C3.58470634,15.5128391 4.14775705,15.6023067 4.83476851,15.6023067 C5.24548188,15.6023067 5.6320005,15.5809627 5.99312958,15.5391533 L5.99312958,15.5391533 Z" id="Fill-2"></path>
            </g>
        </g>
    </g>
</svg>