<svg  xmlns="http://www.w3.org/2000/svg" xmlns:xlink="http://www.w3.org/1999/xlink" viewBox="0 0 85.742 85.743">
			<g>
				<path style="fill:#2780DA;" d="M32.753,73.011l2.92-6.883L13.479,11.677C5.186,19.494,0,30.573,0,42.87
					c0,14.895,7.598,28.01,19.125,35.694c1.412,0.447,2.888,0.679,4.433,0.679C27.957,79.243,31.023,77.165,32.753,73.011z"/>
				<path style="fill:#2780DA;" d="M72.83,12.217L50.837,70.669c-2.438,6.48-5.438,11.487-8.99,15.048
					c0.342,0.009,0.681,0.026,1.024,0.026c23.677,0,42.871-19.193,42.871-42.873C85.742,30.855,80.793,20.001,72.83,12.217z"/>
				<path style="fill:#2780DA;" d="M42.443,44.554c0.648,2.092,1.154,4.561,1.515,7.408h0.217
					c0.324-2.09,0.92-4.523,1.787-7.299l10.449-33.795h14.976C63.81,4.111,53.822,0,42.871,0S21.933,4.111,14.355,10.868h17.746
					L42.443,44.554z"/>
				<path style="fill:#fff;" d="M13.15,10.868l0.33,0.809c0.289-0.272,0.579-0.544,0.876-0.809H13.15z"/>
				<path style="fill:#fff;" d="M73.337,10.868h-1.95c0.491,0.438,0.972,0.889,1.443,1.349L73.337,10.868z"/>
				<path style="fill:#fff;" d="M50.837,70.669L72.83,12.217c-0.472-0.46-0.952-0.91-1.443-1.349H56.411L45.962,44.663
					c-0.867,2.775-1.463,5.209-1.787,7.299h-0.217c-0.361-2.848-0.867-5.316-1.515-7.408L32.101,10.868H14.355
					c-0.297,0.265-0.587,0.536-0.876,0.809l22.194,54.451l-2.92,6.883c-1.73,4.154-4.797,6.232-9.195,6.232
					c-1.545,0-3.021-0.231-4.433-0.679c6.533,4.355,14.329,6.955,22.722,7.152C45.398,82.156,48.398,77.149,50.837,70.669z"/>
			</g>
</svg>
