<svg  xmlns="http://www.w3.org/2000/svg" xmlns:xlink="http://www.w3.org/1999/xlink" viewBox="0 0 328.809 100.928">
<g>
			<g>
				<path style="fill:#2780DA;" d="M140.159,82h-16.125v-7.949h-0.217c-3.711,6.217-9.207,9.324-16.486,9.324
					c-5.369,0-9.594-1.523-12.676-4.57s-4.621-7.111-4.621-12.197c0-10.744,6.363-16.945,19.09-18.605L124.159,46
					c0-6.082-3.277-9.125-9.83-9.125c-6.59,0-12.854,1.959-18.795,5.875V29.875c2.373-1.219,5.619-2.293,9.738-3.227
					c4.119-0.932,7.869-1.398,11.252-1.398c15.756,0,23.635,7.881,23.635,23.641V82z M124.159,59.49v-3.74l-10.053,1.301
					c-5.549,0.723-8.322,3.234-8.322,7.533c0,1.951,0.674,3.551,2.025,4.797s3.18,1.869,5.486,1.869
					c3.207,0,5.818-1.109,7.836-3.332S124.159,62.887,124.159,59.49z"/>
				<path style="fill:#2780DA;" d="M233.845,26.625L217.896,82h-17.947l-8.164-32.447c-0.541-2.162-0.848-4.523-0.918-7.084
					h-0.324c-0.254,2.813-0.613,5.102-1.082,6.867L180.702,82H162.97l-15.625-55.375h17.408l7.623,36.125
					c0.359,1.695,0.631,3.75,0.811,6.164h0.324c0.18-2.523,0.504-4.65,0.973-6.381l9.516-35.908h16.273l8.541,36.123
					c0.215,0.902,0.469,2.992,0.758,6.273h0.379c0.18-2.09,0.467-4.182,0.865-6.273l7.189-36.123H233.845z"/>
				<g>
					<g>
						<path style="fill:#2780DA;" d="M259.106,82h-17.125V26.625h17.125V82z"/>
					</g>
				</g>
				<path style="fill:#2780DA;" d="M328.809,82h-20.496l-17.535-27.471h-0.215V82h-17.125V0h17.125v52.203h0.215
					l16.41-25.578h20.279l-19.801,26.012L328.809,82z"/>
			</g>
			<g>
				<path style="fill:#2780DA;" d="M32.753,88.195l2.92-6.883L13.479,26.861C5.186,34.679,0,45.758,0,58.055
					c0,14.895,7.598,28.01,19.125,35.694c1.412,0.447,2.888,0.679,4.433,0.679C27.957,94.428,31.023,92.35,32.753,88.195z"/>
				<path style="fill:#2780DA;" d="M72.83,27.401L50.837,85.854c-2.439,6.48-5.439,11.487-8.991,15.048
					c0.342,0.009,0.681,0.026,1.024,0.026c23.677,0,42.871-19.193,42.871-42.873C85.742,46.04,80.793,35.186,72.83,27.401z"/>
				<path style="fill:#2780DA;" d="M42.443,59.738c0.648,2.092,1.154,4.561,1.516,7.408h0.217
					c0.324-2.09,0.92-4.523,1.787-7.299l10.449-33.795h14.975c-7.578-6.757-17.564-10.868-28.516-10.868
					s-20.938,4.111-28.516,10.868h17.746L42.443,59.738z"/>
				<path style="fill:#fff;" d="M13.15,26.053l0.33,0.809c0.289-0.272,0.579-0.544,0.876-0.809H13.15z"/>
				<path style="fill:#fff;" d="M73.337,26.053h-1.951c0.492,0.438,0.972,0.889,1.443,1.349L73.337,26.053z"/>
				<path style="fill:#fff;" d="M50.837,85.854L72.83,27.401c-0.471-0.46-0.952-0.91-1.443-1.349H56.412L45.962,59.848
					c-0.867,2.775-1.463,5.209-1.787,7.299h-0.217c-0.361-2.848-0.867-5.316-1.516-7.408L32.101,26.053H14.355
					c-0.297,0.265-0.587,0.536-0.876,0.809l22.194,54.451l-2.92,6.883c-1.73,4.154-4.797,6.232-9.195,6.232
					c-1.545,0-3.021-0.231-4.433-0.679c6.533,4.355,14.329,6.955,22.722,7.152C45.398,97.341,48.398,92.334,50.837,85.854z"/>
			</g>
			<g>
				<path style="fill:#F1B21A;" d="M250.626,17.905c-2.895,0-5.264-0.857-7.107-2.576c-1.846-1.717-2.768-3.822-2.768-6.318
					c0-2.566,0.922-4.662,2.768-6.289c1.844-1.627,4.213-2.441,7.107-2.441c2.93,0,5.307,0.814,7.135,2.441
					c1.826,1.627,2.74,3.723,2.74,6.289c0,2.605-0.914,4.738-2.74,6.4C255.933,17.075,253.556,17.905,250.626,17.905z"/>
			</g>
		</g>
	</svg>
